HIERARCHY
ROOT Hips
{
 OFFSET 0.000000 0.000000 0.000000
 CHANNELS 6 Xposition Yposition Zposition Yrotation Xrotation Zrotation
 JOINT Chest
 {
  OFFSET 0.000000 9.585900 0.002600
  CHANNELS 3 Yrotation Xrotation Zrotation
  JOINT Chest2
  {
   OFFSET 0.000000 9.601200 -0.005300
   CHANNELS 3 Yrotation Xrotation Zrotation
   JOINT Chest3
   {
    OFFSET 0.000000 9.561800 0.000000
    CHANNELS 3 Yrotation Xrotation Zrotation
    JOINT Chest4
    {
     OFFSET 0.000000 9.552100 0.000000
     CHANNELS 3 Yrotation Xrotation Zrotation
     JOINT Neck
     {
      OFFSET 0.000000 14.453000 0.000000
      CHANNELS 3 Yrotation Xrotation Zrotation
      JOINT Head
      {
       OFFSET 0.000000 8.936500 -0.011300
       CHANNELS 3 Yrotation Xrotation Zrotation
       End Site
       {
        OFFSET 0.000000 17.073600 -0.006000
       }
      }
     }
     JOINT RightCollar
     {
      OFFSET -2.921100 9.558500 0.000000
      CHANNELS 3 Yrotation Xrotation Zrotation
      JOINT RightShoulder
      {
       OFFSET -13.519700 0.000000 0.000000
       CHANNELS 3 Yrotation Xrotation Zrotation
       JOINT RightElbow
       {
        OFFSET 0.000000 -29.696600 0.000000
        CHANNELS 3 Yrotation Xrotation Zrotation
        JOINT RightWrist
        {
         OFFSET 0.000000 -24.004700 0.000000
         CHANNELS 3 Yrotation Xrotation Zrotation
         End Site
         {
          OFFSET 0.000000 -17.728500 0.000000
         }
        }
       }
      }
     }
     JOINT LeftCollar
     {
      OFFSET 2.921100 9.558500 0.000000
      CHANNELS 3 Yrotation Xrotation Zrotation
      JOINT LeftShoulder
      {
       OFFSET 13.519700 0.000000 0.000000
       CHANNELS 3 Yrotation Xrotation Zrotation
       JOINT LeftElbow
       {
        OFFSET 0.000000 -29.696600 0.000000
        CHANNELS 3 Yrotation Xrotation Zrotation
        JOINT LeftWrist
        {
         OFFSET 0.000000 -24.004700 0.000000
         CHANNELS 3 Yrotation Xrotation Zrotation
         End Site
         {
          OFFSET 0.000000 -17.728500 0.000000
         }
        }
       }
      }
     }
    }
   }
  }
 }
 JOINT RightHip
 {
  OFFSET -7.771700 -0.012900 -0.001300
  CHANNELS 3 Yrotation Xrotation Zrotation
  JOINT RightKnee
  {
   OFFSET 0.000000 -40.869800 0.001200
   CHANNELS 3 Yrotation Xrotation Zrotation
   JOINT RightAnkle
   {
    OFFSET 0.000000 -39.717900 0.002100
    CHANNELS 3 Yrotation Xrotation Zrotation
    JOINT RightToe
    {
     OFFSET 0.000000 -4.965400 11.033500
     CHANNELS 3 Yrotation Xrotation Zrotation
     End Site
     {
      OFFSET 0.000000 -1.423100 5.872300
     }
    }
   }
  }
 }
 JOINT LeftHip
 {
  OFFSET 7.771700 -0.012900 -0.001300
  CHANNELS 3 Yrotation Xrotation Zrotation
  JOINT LeftKnee
  {
   OFFSET 0.000000 -40.869800 0.001200
   CHANNELS 3 Yrotation Xrotation Zrotation
   JOINT LeftAnkle
   {
    OFFSET 0.000000 -39.717900 0.002100
    CHANNELS 3 Yrotation Xrotation Zrotation
    JOINT LeftToe
    {
     OFFSET 0.000000 -4.965400 11.033500
     CHANNELS 3 Yrotation Xrotation Zrotation
     End Site
     {
      OFFSET 0.000000 -1.423100 5.872300
     }
    }
   }
  }
 }
}
MOTION
Frames: 11
Frame Time: 0.008333
0.000000 85.388000 0.000000 0.000000 -5.767877 0.000000 0.000000 11.653817 0.000000 0.000000 -5.885947 0.000000 0.000000 -0.000000 0.000000 0.000000 -0.000000 0.000000 0.000000 12.528835 0.000000 0.000000 0.711642 0.000000 0.000000 -0.000000 0.000000 0.000000 0.000000 -90.000000 0.000000 -2.309062 0.000000 0.000000 2.309062 0.000000 0.000000 -0.000000 0.000000 0.000000 -0.000000 90.000000 0.000000 -2.309062 0.000000 0.000000 2.309062 0.000000 0.000000 8.520406 0.000000 0.000000 1.905762 0.000000 -0.000000 -4.658285 0.000000 0.000000 -0.000000 0.000000 0.000000 8.520406 0.000000 0.000000 1.905762 0.000000 -0.000000 -4.658285 0.000000 0.000000 -0.000000 0.000000
-25.956215 50.925269 22.588264 159.519422 -11.603480 -2.025139 -1.518617 4.401346 2.531108 -0.061081 0.132998 0.056009 -0.108300 0.235958 0.099310 -1.871199 4.230898 1.705029 1.356266 18.192454 0.847484 2.216858 -2.013199 1.115974 -0.135549 3.648387 -2.372952 -0.170562 -4.250549 -11.519991 59.556734 -57.529716 -22.896958 5.289835 13.789744 -29.408438 -5.929057 -4.107569 1.045806 -5.478549 -7.458583 17.372088 -45.393723 -37.380109 11.683000 0.539963 -4.331467 25.657642 -5.132184 -68.617590 6.792602 -121.867172 84.890453 -121.775497 -6.542077 -13.456243 0.272611 0.105651 0.384721 -0.048216 -5.567589 -72.833090 30.861505 103.037238 82.055759 96.744238 -15.752832 -22.953532 3.669565 -0.482190 -1.236709 -0.194976
-25.946835 50.939590 22.577843 159.285602 -11.637298 -2.016503 -1.431887 4.468603 2.509711 -0.060808 0.131133 0.056197 -0.107748 0.232671 0.099633 -1.872021 4.195004 1.720821 1.286191 18.245014 0.878797 2.077858 -1.916047 1.196917 0.084814 3.525024 -2.259514 0.301035 -4.461954 -12.099115 58.947947 -57.399242 -22.289326 5.273086 13.797873 -29.238463 -6.329120 -4.357846 0.912124 -5.554178 -7.325759 17.532299 -44.925986 -36.809405 11.498554 0.517066 -4.502898 25.221209 -5.097182 -68.546607 6.932654 -121.436372 84.947359 -121.333667 -6.499620 -13.499758 0.273794 0.075974 0.456905 -0.086123 -5.212265 -72.849617 30.779889 103.531614 82.129284 97.302666 -15.637573 -22.888608 3.723709 -0.560452 -1.349735 -0.245064
-25.936498 50.953471 22.585347 159.141171 -11.562453 -2.072723 -1.426593 4.430017 2.533609 -0.060831 0.129383 0.056207 -0.038364 0.215846 0.127180 -1.953626 4.173127 1.701355 1.211995 18.302332 0.909602 1.931604 -1.809962 1.278131 0.279407 3.413760 -2.155598 0.781382 -4.712958 -12.666142 58.247739 -57.249831 -21.567994 5.263190 13.789090 -29.046155 -6.722759 -4.606204 0.764486 -5.628244 -7.194591 17.712908 -44.413303 -36.227231 11.295912 0.495748 -4.686196 24.775584 -5.308761 -68.568823 7.216496 -120.616824 84.992445 -120.463403 -6.425767 -13.509006 0.175871 0.075996 0.504812 -0.069543 -5.203053 -72.954558 30.945744 103.700086 82.157890 97.527014 -15.615471 -22.872611 3.744056 -0.618903 -1.373665 -0.267937
-25.927622 50.969315 22.595147 159.036265 -11.467084 -2.137394 -1.452386 4.372293 2.555447 -0.061234 0.127670 0.055965 -0.076320 0.219872 0.113116 -1.937953 4.131829 1.716263 1.134082 18.363394 0.939686 1.778962 -1.696700 1.359060 0.448120 3.314139 -2.063326 1.269287 -5.006660 -13.212987 57.455704 -57.075559 -20.735005 5.262271 13.767719 -28.822969 -7.109386 -4.840524 0.606312 -5.668606 -7.081636 17.904760 -43.882383 -35.638078 11.076012 0.476084 -4.868470 24.337166 -5.585396 -68.605497 7.521049 -119.769217 85.034647 -119.569267 -6.346428 -13.514467 0.076639 0.075754 0.544734 -0.053934 -5.355463 -73.054721 31.220027 103.758344 82.167656 97.605089 -15.608013 -22.854330 3.754151 -0.675805 -1.375059 -0.287959
-25.921868 50.988348 22.597754 158.940375 -11.404039 -2.173733 -1.478952 4.348295 2.544560 -0.001730 0.108270 0.085737 -0.170571 0.241676 0.068502 -1.940834 4.091289 1.724343 1.053569 18.425939 0.968232 1.622134 -1.580566 1.437829 0.593467 3.220474 -1.983003 1.749340 -5.341910 -13.733221 56.585352 -56.869020 -19.794822 5.271502 13.729279 -28.570046 -7.485438 -5.057972 0.445188 -5.648810 -6.994209 18.092633 -43.368890 -35.048813 10.856602 0.460369 -5.032900 23.912623 -5.805699 -68.610393 7.755927 -119.032881 85.077618 -118.805982 -6.282190 -13.523673 0.014391 0.044041 0.588490 -0.041878 -5.273453 -73.145989 31.252344 103.850370 82.192354 97.753366 -15.578269 -22.821216 3.783930 -0.709005 -1.402675 -0.315479
-25.915870 51.009534 22.599315 158.861685 -11.345654 -2.213152 -1.515552 4.332857 2.532751 -0.035505 0.115519 0.070049 -0.140203 0.230599 0.082606 -1.988434 4.058068 1.710701 0.974418 18.489384 0.994801 1.468549 -1.462756 1.512454 0.718234 3.130882 -1.912644 2.203412 -5.715728 -14.223918 55.654537 -56.629274 -18.755491 5.287218 13.674325 -28.290489 -7.848550 -5.260295 0.288116 -5.558998 -6.925496 18.257651 -42.888352 -34.461473 10.664690 0.446474 -5.169766 23.499899 -6.057182 -68.607258 8.000970 -118.322048 85.119761 -118.071674 -6.217323 -13.530518 -0.044934 0.063300 0.606962 -0.069220 -5.244384 -73.219002 31.315104 103.904717 82.210043 97.848416 -15.539608 -22.801137 3.801151 -0.715963 -1.392661 -0.325999
-25.910173 51.032374 22.600442 158.808725 -11.285657 -2.252630 -1.573337 4.321719 2.516872 -0.064929 0.123432 0.054277 -0.115217 0.219070 0.096246 -2.046490 4.025443 1.689082 0.899840 18.553648 1.018467 1.324481 -1.343258 1.580140 0.827118 3.046829 -1.852632 2.620982 -6.126971 -14.681174 54.673590 -56.358123 -17.627584 5.303234 13.604855 -27.986227 -8.195700 -5.449913 0.137650 -5.397153 -6.868167 18.387028 -42.436541 -33.877038 10.512245 0.423429 -5.271403 23.102760 -6.334454 -68.606072 8.242520 -117.699425 85.161736 -117.427284 -6.170933 -13.528372 -0.071325 0.083767 0.618445 -0.107566 -5.260090 -73.280604 31.384521 103.880318 82.216942 97.851674 -15.482160 -22.792006 3.808536 -0.755149 -1.394037 -0.340418
-25.909159 51.056046 22.600951 158.779168 -11.213111 -2.263425 -1.653312 4.306166 2.468563 -0.066897 0.122217 0.053358 -0.118629 0.216917 0.094605 -2.113736 3.993124 1.660420 0.830296 18.617591 1.039017 1.190775 -1.224125 1.640289 0.924781 2.966425 -1.805144 2.994218 -6.572052 -15.099592 53.645304 -56.056610 -16.418813 5.319049 13.515862 -27.659641 -8.522030 -5.629465 -0.003178 -5.168237 -6.820032 18.479677 -41.999158 -33.301448 10.391079 0.375769 -5.330137 22.743408 -6.557122 -68.623250 8.393930 -117.203192 85.205216 -116.906797 -6.125345 -13.532158 -0.116965 0.100273 0.629483 -0.126216 -5.216195 -73.339895 31.367247 103.739935 82.231359 97.730115 -15.489118 -22.786509 3.817401 -0.745424 -1.382599 -0.339740
-25.913577 51.080171 22.600137 158.763492 -11.128155 -2.234582 -1.745108 4.286623 2.379857 -0.069148 0.121059 0.052307 -0.122547 0.214936 0.092688 -2.189346 3.960831 1.625422 0.765690 18.681587 1.055005 1.067689 -1.104749 1.690347 1.011313 2.888184 -1.771531 3.320963 -7.045101 -15.473030 52.577614 -55.724798 -15.142037 5.338227 13.406411 -27.314463 -8.826679 -5.794556 -0.128096 -4.885210 -6.783725 18.537564 -41.551916 -32.740424 10.286218 0.304829 -5.345071 22.455269 -6.676991 -68.662603 8.413022 -116.856970 85.252041 -116.527153 -6.078560 -13.543619 -0.178923 0.111440 0.642988 -0.129654 -5.003970 -73.371468 31.146205 103.224192 82.239507 97.224315 -15.499739 -22.882007 3.826485 -0.744306 -1.267744 -0.346245
-25.912145 51.105100 22.600502 158.766757 -11.039534 -2.232538 -1.844776 4.271473 2.318787 -0.071810 0.120099 0.051119 -0.127335 0.213308 0.090675 -2.277399 3.929571 1.585056 0.706702 18.747364 1.062907 0.957578 -0.982018 1.723636 1.090547 2.813030 -1.752390 3.599442 -7.537539 -15.797525 51.494702 -55.361766 -13.829851 5.359854 13.279505 -26.956605 -9.105953 -5.934290 -0.232584 -4.565496 -6.764757 18.563436 -41.068412 -32.199637 10.182845 0.227646 -5.315919 22.269032 -6.852038 -68.705331 8.469984 -116.613077 85.301641 -116.234679 -6.014420 -13.537011 -0.242985 0.076356 0.642804 -0.104200 -4.987430 -73.416653 31.105060 102.888966 82.272431 96.900725 -15.515643 -22.917682 3.810976 -0.709474 -1.211363 -0.332537
